<?xml version="1.0" standalone="no"?>
<!DOCTYPE svg PUBLIC "-//W3C//DTD SVG 20010904//EN"
 "http://www.w3.org/TR/2001/REC-SVG-20010904/DTD/svg10.dtd">
<svg version="1.0" xmlns="http://www.w3.org/2000/svg"
 width="225.000000pt" height="225.000000pt" viewBox="0 0 225.000000 225.000000"
 preserveAspectRatio="xMidYMid meet">

<g transform="translate(0.000000,225.000000) scale(0.100000,-0.100000)"
fill="#000000" stroke="none">
<path d="M998 2190 c-170 -20 -383 -106 -519 -209 -347 -264 -499 -709 -389
-1136 26 -101 114 -280 179 -366 387 -508 1128 -570 1592 -132 97 92 161 180
224 308 117 238 142 490 75 750 -26 101 -114 280 -179 366 -230 302 -607 462
-983 419z m357 -185 c98 -27 254 -107 337 -173 103 -82 190 -193 248 -317 75
-158 85 -204 85 -390 0 -186 -10 -232 -85 -390 -89 -190 -231 -332 -424 -424
-156 -75 -204 -86 -391 -86 -186 0 -232 10 -390 85 -190 89 -336 235 -425 425
-75 158 -85 204 -85 390 0 186 10 232 85 390 122 260 374 455 652 505 78 13
322 4 393 -15z"/>
</g>
</svg>
